<mxfile host="app.diagrams.net" agent="Mozilla/5.0 (Macintosh; Intel Mac OS X 10_15_7) AppleWebKit/537.36 (KHTML, like Gecko) Chrome/129.0.0.0 Safari/537.36" version="24.7.17">
  <diagram name="Page-1" id="123Og8wjdWLhFIrjFVof">
    <mxGraphModel dx="770" dy="633" grid="1" gridSize="10" guides="1" tooltips="1" connect="1" arrows="1" fold="1" page="1" pageScale="1" pageWidth="850" pageHeight="1100" math="0" shadow="0">
      <root>
        <mxCell id="0" />
        <mxCell id="1" parent="0" />
        <mxCell id="pK6SyxDbiv3ZsTpDw3rF-14" value="" style="rounded=0;whiteSpace=wrap;html=1;fillColor=#d5e8d4;dashed=1;dashPattern=1 4;strokeColor=#82b366;" vertex="1" parent="1">
          <mxGeometry x="620" y="300" width="160" height="100" as="geometry" />
        </mxCell>
        <mxCell id="pK6SyxDbiv3ZsTpDw3rF-12" value="" style="rounded=0;whiteSpace=wrap;html=1;fillColor=#fff2cc;dashed=1;strokeColor=#d6b656;" vertex="1" parent="1">
          <mxGeometry x="120" y="140" width="440" height="420" as="geometry" />
        </mxCell>
        <mxCell id="pK6SyxDbiv3ZsTpDw3rF-11" value="" style="rounded=0;whiteSpace=wrap;html=1;fillColor=#d5e8d4;dashed=1;dashPattern=1 4;strokeColor=#82b366;" vertex="1" parent="1">
          <mxGeometry x="140" y="300" width="160" height="100" as="geometry" />
        </mxCell>
        <mxCell id="pK6SyxDbiv3ZsTpDw3rF-10" value="" style="rounded=0;whiteSpace=wrap;html=1;fillColor=#dae8fc;dashed=1;dashPattern=1 4;strokeColor=#6c8ebf;" vertex="1" parent="1">
          <mxGeometry x="380" y="180" width="160" height="340" as="geometry" />
        </mxCell>
        <mxCell id="pK6SyxDbiv3ZsTpDw3rF-6" style="edgeStyle=orthogonalEdgeStyle;rounded=0;orthogonalLoop=1;jettySize=auto;html=1;entryX=0;entryY=0.5;entryDx=0;entryDy=0;" edge="1" parent="1" source="pK6SyxDbiv3ZsTpDw3rF-1" target="pK6SyxDbiv3ZsTpDw3rF-3">
          <mxGeometry relative="1" as="geometry" />
        </mxCell>
        <mxCell id="pK6SyxDbiv3ZsTpDw3rF-7" style="edgeStyle=orthogonalEdgeStyle;rounded=0;orthogonalLoop=1;jettySize=auto;html=1;" edge="1" parent="1" source="pK6SyxDbiv3ZsTpDw3rF-1" target="pK6SyxDbiv3ZsTpDw3rF-2">
          <mxGeometry relative="1" as="geometry" />
        </mxCell>
        <mxCell id="pK6SyxDbiv3ZsTpDw3rF-8" style="edgeStyle=orthogonalEdgeStyle;rounded=0;orthogonalLoop=1;jettySize=auto;html=1;entryX=0;entryY=0.5;entryDx=0;entryDy=0;startArrow=classic;startFill=1;" edge="1" parent="1" source="pK6SyxDbiv3ZsTpDw3rF-1" target="pK6SyxDbiv3ZsTpDw3rF-5">
          <mxGeometry relative="1" as="geometry" />
        </mxCell>
        <mxCell id="pK6SyxDbiv3ZsTpDw3rF-1" value="App/User" style="rounded=0;whiteSpace=wrap;html=1;" vertex="1" parent="1">
          <mxGeometry x="160" y="320" width="120" height="60" as="geometry" />
        </mxCell>
        <mxCell id="pK6SyxDbiv3ZsTpDw3rF-9" style="edgeStyle=orthogonalEdgeStyle;rounded=0;orthogonalLoop=1;jettySize=auto;html=1;entryX=0;entryY=0.5;entryDx=0;entryDy=0;startArrow=classic;startFill=1;" edge="1" parent="1" source="pK6SyxDbiv3ZsTpDw3rF-2" target="pK6SyxDbiv3ZsTpDw3rF-4">
          <mxGeometry relative="1" as="geometry" />
        </mxCell>
        <mxCell id="pK6SyxDbiv3ZsTpDw3rF-2" value="Firebase" style="rounded=0;whiteSpace=wrap;html=1;" vertex="1" parent="1">
          <mxGeometry x="400" y="320" width="120" height="60" as="geometry" />
        </mxCell>
        <mxCell id="pK6SyxDbiv3ZsTpDw3rF-3" value="GitHub Models" style="rounded=0;whiteSpace=wrap;html=1;" vertex="1" parent="1">
          <mxGeometry x="400" y="200" width="120" height="60" as="geometry" />
        </mxCell>
        <mxCell id="pK6SyxDbiv3ZsTpDw3rF-4" value="App/User" style="rounded=0;whiteSpace=wrap;html=1;" vertex="1" parent="1">
          <mxGeometry x="640" y="320" width="120" height="60" as="geometry" />
        </mxCell>
        <mxCell id="pK6SyxDbiv3ZsTpDw3rF-5" value="Google Maps" style="rounded=0;whiteSpace=wrap;html=1;" vertex="1" parent="1">
          <mxGeometry x="400" y="440" width="120" height="60" as="geometry" />
        </mxCell>
        <mxCell id="pK6SyxDbiv3ZsTpDw3rF-13" value="Client 1" style="text;html=1;align=center;verticalAlign=middle;whiteSpace=wrap;rounded=0;" vertex="1" parent="1">
          <mxGeometry x="250" y="380" width="60" height="30" as="geometry" />
        </mxCell>
        <mxCell id="pK6SyxDbiv3ZsTpDw3rF-15" value="Client 2" style="text;html=1;align=center;verticalAlign=middle;whiteSpace=wrap;rounded=0;" vertex="1" parent="1">
          <mxGeometry x="730" y="380" width="60" height="30" as="geometry" />
        </mxCell>
        <mxCell id="pK6SyxDbiv3ZsTpDw3rF-16" value="Server" style="text;html=1;align=center;verticalAlign=middle;whiteSpace=wrap;rounded=0;" vertex="1" parent="1">
          <mxGeometry x="490" y="500" width="60" height="30" as="geometry" />
        </mxCell>
        <mxCell id="pK6SyxDbiv3ZsTpDw3rF-19" value="Client-Server" style="text;html=1;align=center;verticalAlign=middle;whiteSpace=wrap;rounded=0;" vertex="1" parent="1">
          <mxGeometry x="485" y="535" width="75" height="30" as="geometry" />
        </mxCell>
      </root>
    </mxGraphModel>
  </diagram>
</mxfile>
